# xmcd CD database file
#
# Track frame offsets:
#	150
#	19107
#	40567
#	70814
#	87921
#	119344
#	133200
#	151793
#	171561
#	193555
#	221107
#	247577
#	263898
#	291052
#
# Disc length: 4265 seconds
#
# Revision: 1
# Processed by: cddbd v1.5.2PL0 Copyright (c) Steve Scherf et al.
# Submitted via: CDex 1.70beta2
#
DISCID=c210a70e
DTITLE=Rita Falk - Sauerkraut-Koma
DYEAR=2013
DGENRE=Hörbuch
TTITLE0=Sauerkraut-Koma - 54
TTITLE1=Sauerkraut-Koma - 55
TTITLE2=Sauerkraut-Koma - 56
TTITLE3=Sauerkraut-Koma - 57
TTITLE4=Sauerkraut-Koma - 58
TTITLE5=Sauerkraut-Koma - 59
TTITLE6=Sauerkraut-Koma - 60
TTITLE7=Sauerkraut-Koma - 61
TTITLE8=Sauerkraut-Koma - 62
TTITLE9=Sauerkraut-Koma - 63
TTITLE10=Sauerkraut-Koma - 64
TTITLE11=Sauerkraut-Koma - 65
TTITLE12=Sauerkraut-Koma - 66
TTITLE13=Sauerkraut-Koma - 67
EXTD=YEAR: 2013
EXTT0=
EXTT1=
EXTT2=
EXTT3=
EXTT4=
EXTT5=
EXTT6=
EXTT7=
EXTT8=
EXTT9=
EXTT10=
EXTT11=
EXTT12=
EXTT13=
PLAYORDER=
